<svg xmlns="http://www.w3.org/2000/svg" version="1.1" xmlns:xlink="http://www.w3.org/1999/xlink" xmlns:svgjs="http://svgjs.dev/svgjs" width="1500" height="1500" viewBox="0 0 1500 1500"><rect width="1500" height="1500" fill="#ffffff"></rect><g transform="matrix(0.6666666666666666,0,0,0.6666666666666666,249.39393939393938,625.8172888569441)"><svg viewBox="0 0 396 98" data-background-color="#ffffff" preserveAspectRatio="xMidYMid meet" height="371" width="1500" xmlns="http://www.w3.org/2000/svg" xmlns:xlink="http://www.w3.org/1999/xlink"><g id="tight-bounds" transform="matrix(1,0,0,1,0.2400000000000091,0.20447045290899268)"><svg viewBox="0 0 395.52 97.59105909418199" height="97.59105909418199" width="395.52"><g><svg viewBox="0 0 587.2240736137863 144.89234240890295" height="97.59105909418199" width="395.52"><g transform="matrix(1,0,0,1,191.70407361378636,22.873436995040713)"><svg viewBox="0 0 395.52 99.14546841882152" height="99.14546841882152" width="395.52"><g id="textblocktransform"><svg viewBox="0 0 395.52 99.14546841882152" height="99.14546841882152" width="395.52" id="textblock"><g><svg viewBox="0 0 395.52 99.14546841882152" height="99.14546841882152" width="395.52"><g transform="matrix(1,0,0,1,0,0)"><svg width="395.52" viewBox="3.96 -32.93 172.76 43.31" height="99.14546841882152" data-palette-color="#000000"><path d="M27.39 0L3.96 0 3.96-32.93 26.39-32.93 26.39-29.13 8.62-29.13 8.62-18.82 24.93-18.82 24.93-15.06 8.62-15.06 8.62-3.81 27.39-3.81 27.39 0ZM55.88-7.54L55.88-7.54Q55.88-3.78 53.04-1.65 50.19 0.49 45.16 0.49L45.16 0.49Q40.13 0.49 37.51-1.09 34.89-2.66 34.08-6.05L34.08-6.05 37.96-6.81Q38.43-4.71 39.95-3.75 41.48-2.78 45.16-2.78L45.16-2.78Q51.76-2.78 51.76-6.96L51.76-6.96Q51.76-8.52 50.56-9.48 49.36-10.45 46.9-11.06L46.9-11.06Q40.45-12.65 38.72-13.55 36.98-14.45 36.06-15.81 35.13-17.16 35.13-19.19L35.13-19.19Q35.13-22.78 37.72-24.8 40.31-26.83 45.21-26.83L45.21-26.83Q49.51-26.83 52.07-25.21 54.64-23.58 55.27-20.48L55.27-20.48 51.32-20Q51.05-21.75 49.58-22.66 48.12-23.56 45.21-23.56L45.21-23.56Q39.23-23.56 39.23-19.87L39.23-19.87Q39.23-18.41 40.24-17.53 41.26-16.65 43.5-16.11L43.5-16.11 46.41-15.36Q50.39-14.38 52.13-13.43 53.88-12.48 54.88-11.05 55.88-9.62 55.88-7.54ZM63.18-13.23L63.18-13.23Q63.18-19.82 66.33-23.36 69.48-26.9 75.43-26.9L75.43-26.9Q79.88-26.9 82.76-24.77 85.64-22.63 86.32-19.02L86.32-19.02 81.64-18.68Q81.25-20.9 79.68-22.18 78.12-23.46 75.24-23.46L75.24-23.46Q71.38-23.46 69.59-21.07 67.79-18.68 67.79-13.33L67.79-13.33Q67.79-7.91 69.59-5.41 71.38-2.91 75.21-2.91L75.21-2.91Q77.85-2.91 79.58-4.2 81.32-5.49 81.73-8.15L81.73-8.15 86.37-7.86Q86.05-5.52 84.6-3.6 83.15-1.68 80.76-0.6 78.36 0.49 75.41 0.49L75.41 0.49Q69.43 0.49 66.3-3.03 63.18-6.54 63.18-13.23ZM116.89-2.71L116.89-2.71Q117.52-2.71 118.33-2.88L118.33-2.88 118.33-0.15Q116.67 0.24 114.93 0.24L114.93 0.24Q112.49 0.24 111.38-1.04 110.27-2.32 110.12-5.05L110.12-5.05 109.98-5.05Q108.39-2.1 106.23-0.81 104.07 0.49 100.9 0.49L100.9 0.49Q97.04 0.49 95.09-1.61 93.13-3.71 93.13-7.37L93.13-7.37Q93.13-15.89 104.22-16.02L104.22-16.02 109.98-16.11 109.98-17.55Q109.98-20.75 108.68-22.16 107.39-23.56 104.56-23.56L104.56-23.56Q101.68-23.56 100.41-22.53 99.14-21.51 98.89-19.36L98.89-19.36 94.3-19.78Q95.43-26.9 104.63-26.9L104.63-26.9Q109.51-26.9 111.97-24.62 114.42-22.34 114.42-18.02L114.42-18.02 114.42-6.64Q114.42-4.69 114.93-3.7 115.45-2.71 116.89-2.71ZM102.02-2.86L102.02-2.86Q104.36-2.86 106.17-3.98 107.98-5.1 108.98-6.98 109.98-8.86 109.98-10.86L109.98-10.86 109.98-13.04 105.34-12.94Q102.46-12.89 100.94-12.3 99.43-11.72 98.59-10.51 97.75-9.3 97.75-7.3L97.75-7.3Q97.75-5.3 98.83-4.08 99.92-2.86 102.02-2.86ZM146.62-13.33L146.62-13.33Q146.62 0.49 137.05 0.49L137.05 0.49Q131.04 0.49 128.97-4L128.97-4 128.85-4Q128.95-3.81 128.95 0.05L128.95 0.05 128.95 10.38 124.53 10.38 124.53-20.95Q124.53-25.1 124.38-26.42L124.38-26.42 128.65-26.42Q128.68-26.32 128.73-25.7 128.77-25.07 128.84-23.86 128.9-22.66 128.9-22.07L128.9-22.07 128.99-22.07Q130.21-24.63 132.11-25.79 134-26.95 137.05-26.95L137.05-26.95Q141.88-26.95 144.25-23.62 146.62-20.29 146.62-13.33ZM142.08-13.33L142.08-13.33Q142.08-18.85 140.59-21.2 139.1-23.56 135.9-23.56L135.9-23.56Q132.22-23.56 130.58-20.89 128.95-18.21 128.95-12.79L128.95-12.79Q128.95-7.59 130.58-5.18 132.22-2.76 135.85-2.76L135.85-2.76Q139.1-2.76 140.59-5.22 142.08-7.69 142.08-13.33ZM176.72-12.28L157.87-12.28Q157.87-7.84 159.84-5.32 161.8-2.81 165.22-2.81L165.22-2.81Q167.74-2.81 169.63-3.89 171.52-4.98 172.16-6.86L172.16-6.86 176.01-5.76Q174.94-2.73 172.07-1.12 169.2 0.49 165.22 0.49L165.22 0.49Q159.46 0.49 156.36-3.1 153.26-6.69 153.26-13.38L153.26-13.38Q153.26-19.9 156.3-23.4 159.34-26.9 165.08-26.9L165.08-26.9Q170.81-26.9 173.77-23.41 176.72-19.92 176.72-12.87L176.72-12.87 176.72-12.28ZM165.12-23.66L165.12-23.66Q161.85-23.66 159.95-21.52 158.04-19.38 157.92-15.65L157.92-15.65 172.18-15.65Q171.5-23.66 165.12-23.66Z" opacity="1" transform="matrix(1,0,0,1,0,0)" fill="#000000" class="wordmark-text-0" data-fill-palette-color="primary" id="text-0"></path></svg></g></svg></g></svg></g></svg></g><g><svg viewBox="0 0 144.89234240890295 144.89234240890295" height="144.89234240890295" width="144.89234240890295"><g><svg></svg></g><g id="icon-0"><svg viewBox="0 0 144.89234240890295 144.89234240890295" height="144.89234240890295" width="144.89234240890295"><g><path d="M0 72.446c0-40.011 32.435-72.446 72.446-72.446 40.011 0 72.446 32.435 72.446 72.446 0 40.011-32.435 72.446-72.446 72.446-40.011 0-72.446-32.435-72.446-72.446zM72.446 135.951c35.073 0 63.505-28.432 63.505-63.505 0-35.073-28.432-63.505-63.505-63.505-35.073 0-63.505 28.432-63.505 63.505 0 35.073 28.432 63.505 63.505 63.505z" data-fill-palette-color="tertiary" fill="#261f20" stroke="transparent"></path></g><g transform="matrix(1,0,0,1,49.652014929809084,33.15853260262288)"><svg viewBox="0 0 45.58831254928478 78.5752772036572" height="78.5752772036572" width="45.58831254928478"><g><svg xmlns="http://www.w3.org/2000/svg" xmlns:xlink="http://www.w3.org/1999/xlink" version="1.1" x="0" y="0" viewBox="21.679106830508623 1 56.85827385947761 98" enable-background="new 0 0 100 100" xml:space="preserve" height="78.5752772036572" width="45.58831254928478" class="icon-cg-0" data-fill-palette-color="accent" id="cg-0"><g fill="#261f20" data-fill-palette-color="accent"><path fill-rule="evenodd" clip-rule="evenodd" d="M30.545 28.822c-1.165 7.217 0.33 14.85 6.5 19.041C30.758 19.81 45.756 8.664 59.646 1c-16.18 23.046 16.896 23.644 18.777 50.13C80.028 73.71 64.507 91.317 46.639 99c0.206-22.825-22.55-25.933-24.838-44.603C20.905 47.094 25.062 33.766 30.545 28.822z" fill="#261f20" data-fill-palette-color="accent"></path></g></svg></g></svg></g></svg></g></svg></g></svg></g><defs></defs></svg><rect width="395.52" height="97.59105909418199" fill="none" stroke="none" visibility="hidden"></rect></g></svg></g></svg>